<svg viewBox="0 0 128 128">
	<path
		d="M124 34.6l4-10.4-.2-.7L88 34c4.2-6.1 2.8-11 2.8-11S78 31 68.4 30.8c-9.6-.3-12.7-2.8-27.5 1.9C26.1
          37.5 22 51.9 17.7 55 13.4 58 0 68.3 0 68.3v.1l12.1-3.8S8.8 67.7 1.8 77.2l-.4-.3s5.7 8.7 11.3 7.1a11 11 0
          001.9-.8 22 22 0 008.3 2.8s-2.1-2.5-4-5.4l1.3-.8 4.6 1.7-.5-4.3 4.6 1.6-.6-4L30 74l4.8-17.8 19.5-13.3-1.6
          3.9c-4 9.7-11.4 12-11.4 12l-3 1.2c-2.4 2.7-3.3 3.4-4.1 12.5 1.8-.5 3.6-.5 5.2-.1 8.4 2.2 11.3 12.3 9
          15-.5.8-1.9 2-3.6 3.3h-3.4v2.8l-.4.3h-3.4v2.6l-1 .7a16 16 0 01-7.3-2.7c0 2.5 2.2 6.5 2.2 6.5l.4-.2-.4.3s8.7
          5.7 14.1 3.6C50.5 102.6 63 92.8 74 88l32.8-8.6 4.3-11.3-25 6.6v-10l29.3-7.8 4.4-11.2L86 54.7v-10l38-10zM64.4
          56l7.8-2.1.1.4-2.4 6.3-8 2.1 2.5-6.8zm2.7 13.4l-8 2.1 2.6-6.7 7.8-2v.3l-2.4 6.3zm10.5-2.2l-8 2 2.6-6.7
          7.8-2v.4l-2.4 6.3z"
	></path>
</svg>
