<svg viewBox="216.34 214.3979 590.66 585.5621" xmlns="http://www.w3.org/2000/svg">
  <path d="M 464.49 752.21 C 414.98 702.95 354.98 644.29 313.96 605.06 C 301.06 592.72 273.81 566.31 253.42 546.38 L 216.34 510.14 L 364.14 361.87 C 445.43 280.33 512.3 213.97 512.72 214.4 C 513.15 214.83 558.5 260.07 613.5 314.92 C 751.55 452.6 807 508.38 807 509.54 C 807 510.54 748.91 568.61 711 605.5 C 699.73 616.47 676.55 639.2 659.5 656 C 642.45 672.81 611.85 702.72 591.5 722.48 C 571.15 742.24 545.05 767.76 533.49 779.18 L 512.48 799.96 L 464.49 752.21 M 584.68 671.79 C 624.18 632.62 672.91 584.36 692.98 564.54 C 742.68 515.43 748 510.1 748 509.41 C 748 508.25 736.06 496 676.02 435.5 C 543.88 302.37 513.5 272 512.47 272 C 511.46 272 443.86 339.61 327.25 457.22 C 299.61 485.1 277 508.52 277 509.28 C 277 510.85 510.47 742.82 512.18 742.95 C 512.56 742.98 545.18 710.95 584.68 671.79 M 502.49 670.82 C 497.02 665.14 464.83 632.38 430.97 598 C 359.15 525.1 344.61 510.19 344.19 509 C 343.76 507.82 416.18 433.2 489.29 359.5 L 512.11 336.5 L 597.05 421.8 C 643.77 468.71 682 507.8 682 508.66 C 682 509.52 648.58 543.81 607.74 584.86 C 566.89 625.91 528.74 664.37 522.95 670.32 L 512.43 681.13 L 502.49 670.82 M 514.17 657.03 C 514.35 656.49 530.7 639.73 550.51 619.78 C 570.31 599.83 602.71 567.08 622.51 547 C 642.3 526.92 659.07 510.27 659.77 509.98 C 660.57 509.65 657.43 505.56 651.36 498.98 C 638.66 485.23 513.01 358 512.13 358 C 511.75 358 495.93 374.08 476.97 393.74 C 458.01 413.4 431.44 440.73 417.93 454.49 C 404.41 468.25 387.21 485.98 379.71 493.91 L 366.07 508.32 L 369.18 511.91 C 370.89 513.88 396.66 540.25 426.45 570.5 C 456.24 600.75 487.74 632.81 496.46 641.75 C 505.18 650.69 512.66 658 513.07 658 C 513.49 658 513.98 657.56 514.17 657.03 M 511.86 620.1 C 511.66 619.52 485.74 592.97 454.25 561.1 C 422.76 529.24 397 502.75 397 502.24 C 397 500.64 511.11 386 512.7 386 C 514.13 386 630.55 501.78 629.84 502.5 C 616.05 516.41 557.22 575.95 540.87 592.54 C 513.38 620.42 512.31 621.44 511.86 620.1 M 543 557.96 C 543 557.67 537.83 551.97 531.5 545.3 C 525.17 538.63 520 532.76 520 532.25 C 520 531.75 529.67 521.77 541.5 510.09 C 553.33 498.41 563 488.53 563 488.13 C 563 487.06 513.49 438 512.41 438 C 511.9 438 500.13 449.37 486.24 463.26 L 461 488.52 L 482.5 510 C 494.32 521.82 504 531.86 504 532.33 C 504 532.79 499.39 538.12 493.75 544.17 C 480.57 558.31 480.72 558.01 486.7 557.98 C 491.39 557.96 491.73 557.74 501.77 548.21 L 512.04 538.47 L 522.25 548.19 C 532.47 557.91 533.52 558.5 540.75 558.5 C 541.99 558.5 543 558.26 543 557.96 M 493.26 507.79 L 474.02 488.62 L 493.26 469.03 C 503.84 458.26 512.5 449.47 512.5 449.51 C 512.5 449.54 521.16 458.33 531.74 469.04 L 550.98 488.5 L 531.74 507.73 L 512.5 526.96 L 493.26 507.79 Z" fill="#1D9A6C" />
</svg>
